<svg width="116" height="116" viewBox="0 0 116 116" fill="none" xmlns="http://www.w3.org/2000/svg">
<rect width="116" height="116" rx="58" fill="#BFBFBF"/>
<g filter="url(#filter0_d_1188_53643)">
<path d="M77.3344 72.0334C76.2817 69.5399 74.7541 67.275 72.8366 65.3649C70.925 63.4492 68.6605 61.9218 66.1681 60.8671C66.1458 60.8559 66.1235 60.8504 66.1011 60.8392C69.5777 58.328 71.8377 54.2376 71.8377 49.6227C71.8377 41.9776 65.6435 35.7834 57.9985 35.7834C50.3534 35.7834 44.1592 41.9776 44.1592 49.6227C44.1592 54.2376 46.4192 58.328 49.8958 60.8448C49.8735 60.8559 49.8511 60.8615 49.8288 60.8727C47.3288 61.9274 45.0855 63.4396 43.1603 65.3704C41.2446 67.2821 39.7172 69.5466 38.6625 72.039C37.6264 74.479 37.0676 77.095 37.0163 79.7454C37.0148 79.805 37.0253 79.8643 37.047 79.9197C37.0688 79.9752 37.1015 80.0257 37.1431 80.0684C37.1847 80.111 37.2344 80.1449 37.2893 80.168C37.3442 80.1912 37.4032 80.2031 37.4627 80.203H40.811C41.0565 80.203 41.2518 80.0077 41.2574 79.7678C41.369 75.4597 43.0989 71.4251 46.1569 68.3671C49.321 65.203 53.523 63.462 57.9985 63.462C62.4739 63.462 66.6759 65.203 69.84 68.3671C72.898 71.4251 74.6279 75.4597 74.7395 79.7678C74.7451 80.0133 74.9404 80.203 75.186 80.203H78.5342C78.5937 80.2031 78.6527 80.1912 78.7076 80.168C78.7625 80.1449 78.8122 80.111 78.8539 80.0684C78.8955 80.0257 78.9281 79.9752 78.9499 79.9197C78.9716 79.8643 78.9821 79.805 78.9806 79.7454C78.9248 77.078 78.3723 74.4832 77.3344 72.0334V72.0334ZM57.9985 59.2209C55.4371 59.2209 53.0264 58.222 51.2127 56.4084C49.3991 54.5948 48.4002 52.1841 48.4002 49.6227C48.4002 47.0613 49.3991 44.6506 51.2127 42.837C53.0264 41.0233 55.4371 40.0245 57.9985 40.0245C60.5598 40.0245 62.9706 41.0233 64.7842 42.837C66.5978 44.6506 67.5967 47.0613 67.5967 49.6227C67.5967 52.1841 66.5978 54.5948 64.7842 56.4084C62.9706 58.222 60.5598 59.2209 57.9985 59.2209Z" fill="white"/>
</g>
<defs>
<filter id="filter0_d_1188_53643" x="29" y="33" width="58" height="58" filterUnits="userSpaceOnUse" color-interpolation-filters="sRGB">
<feFlood flood-opacity="0" result="BackgroundImageFix"/>
<feColorMatrix in="SourceAlpha" type="matrix" values="0 0 0 0 0 0 0 0 0 0 0 0 0 0 0 0 0 0 127 0" result="hardAlpha"/>
<feOffset dy="4"/>
<feGaussianBlur stdDeviation="2"/>
<feComposite in2="hardAlpha" operator="out"/>
<feColorMatrix type="matrix" values="0 0 0 0 0 0 0 0 0 0 0 0 0 0 0 0 0 0 0.25 0"/>
<feBlend mode="normal" in2="BackgroundImageFix" result="effect1_dropShadow_1188_53643"/>
<feBlend mode="normal" in="SourceGraphic" in2="effect1_dropShadow_1188_53643" result="shape"/>
</filter>
</defs>
</svg>
